# AST/ASF file generated using VICON BodyLanguage
# -----------------------------------------------
:version 1.10
:name VICON
:units
  mass 1.0
  length 0.45
  angle deg
:documentation
   .ast/.asf automatically generated from VICON data using
   VICON BodyBuilder and BodyLanguage model FoxedUp or BRILLIANT.MOD
:root
   order TX TY TZ RX RY RZ
   axis XYZ
   position 0 0 0  
   orientation 0 0 0 
:bonedata
  begin
     id 1 
     name lhipjoint
     direction 0.606768 -0.715223 0.346827 
     length 2.41543 
     axis 0 0 0  XYZ
  end
  begin
     id 2 
     name lfemur
     direction 0.34202 -0.939693 0  
     length 7.2778  
     axis 0 0 20  XYZ
    dof rx ry rz
    limits (-160.0 20.0)
           (-70.0 70.0)
           (-60.0 70.0)
  end
  begin
     id 3 
     name ltibia
     direction 0.34202 -0.939693 0   
     length 7.61811   
     axis 0 0 20   XYZ
    dof rx
    limits (-10.0 170.0)
  end
  begin
     id 4 
     name lfoot
     direction 0.0823924 -0.226371 0.97055   
     length 2.33618   
     axis -90 7.62852e-016 20   XYZ
    dof rx rz
    limits (-45.0 90.0)
           (-70.0 20.0)
  end
  begin
     id 5 
     name ltoes
     direction 1.53554e-011 -4.21934e-011 1   
     length 1.17015   
     axis -90 7.62852e-016 20   XYZ
    dof rx
    limits (-90.0 20.0)
  end
  begin
     id 6 
     name rhipjoint
     direction -0.6077 -0.714582 0.346516   
     length 2.4176  
     axis 0 0 0  XYZ 
  end
  begin
     id 7 
     name rfemur
     direction -0.34202 -0.939693 0   
     length 7.28127   
     axis 0 0 -20   XYZ
    dof rx ry rz
    limits (-160.0 20.0)
           (-70.0 70.0)
           (-70.0 60.0)
  end
  begin
     id 8 
     name rtibia
     direction -0.34202 -0.939693 0   
     length 7.77648   
     axis 0 0 -20   XYZ
    dof rx
    limits (-10.0 170.0)
 end
 begin
     id 9 
     name rfoot
     direction -0.0809463 -0.222398 0.97159   
     length 2.37533  
     axis -90 -7.62852e-016 -20   XYZ
    dof rx rz
    limits (-45.0 90.0)
           (-20.0 70.0)
  end
  begin
     id 10 
     name rtoes
     direction -1.53568e-011 -4.21714e-011 1   
     length 1.18972   
     axis -90 -7.62852e-016 -20   XYZ
    dof rx
    limits (-90.0 20.0)
  end
  begin
     id 11 
     name lowerback
     direction 0.010968 0.991932 -0.126297   
     length 2.21698   
     axis 0 0 0   XYZ
    dof rx ry rz
    limits (-20.0 45.0)
           (-30.0 30.0)
           (-30.0 30.0)
  end
  begin
     id 12 
     name upperback
     direction 0.0167007 0.997503 -0.0686276   
     length 2.22371   
     axis 0 0 0   XYZ
    dof rx ry rz
    limits (-20.0 45.0)
           (-30.0 30.0)
           (-30.0 30.0)
  end
  begin
     id 13 
     name thorax
     direction 0.0111721 0.999885 -0.0102878   
     length 2.25242   
     axis 0 0 0   XYZ
    dof rx ry rz
    limits (-20.0 45.0)
           (-30.0 30.0)
           (-30.0 30.0)
  end
  begin
     id 14 
     name lowerneck
     direction -0.0120265 0.990428 0.137508   
     length 1.57674   
     axis 0 0 0   XYZ
    dof rx ry rz
    limits (-20.0 45.0)
           (-30.0 30.0)
           (-30.0 30.0)
  end
  begin
     id 15 
     name upperneck
     direction 0.0175669 0.998907 0.0433089   
     length 1.5618   
     axis 0 0 0   XYZ
    dof rx ry rz
    limits (-20.0 45.0)
           (-30.0 30.0)
           (-30.0 30.0)
  end
  begin
     id 16
     name head
     direction 0.00754609 0.99997 0.00185367  
     length 1.60579  
     axis 0 0 0   XYZ
    dof rx ry rz
    limits (-20.0 45.0)
           (-30.0 30.0)
           (-30.0 30.0)
  end
  begin
     id 17 
     name lclavicle
     direction 0.885866 0.429166 -0.176231  
     length 3.44967  
     axis 0 0 0   XYZ
    dof ry rz
    limits (-20.0 10.0)
           (0.0 20.0)
  end
  begin
     id 18 
     name lhumerus
     direction 1 -4.48973e-011 -1.90255e-027   
     length 5.20607   
     axis 180 -30 -90   XYZ
    dof rx ry rz
    limits (-60.0 90.0)
           (-90.0 90.0)
           (-90.0 90.0)
  end
  begin
     id 19
     name lradius
     direction 1 -4.48956e-011 9.87925e-027   
     length 3.39961   
     axis 180 -30 -90   XYZ
    dof rx
    limits (-10.0 170.0)
  end
  begin
     id 20
     name lwrist
     direction 1 -4.48985e-011 1.73247e-026   
     length 1.6998   
     axis -9.60847e-015 90 90   XYZ
    dof ry
    limits (-180.0 0.0)
 end
  begin
     id 21 
     name lhand
     direction 1 -4.48798e-011 3.46119e-026   
     length 0.519693   
     axis -2.21073e-014 90 90   XYZ
    dof rx rz
    limits (-90.0 90.0)
           (-45.0 45.0)
  end
  begin
     id 22 
     name lfingers
     direction 1 -4.48938e-011 6.92797e-026   
     length 0.41899   
     axis -4.42155e-014 90 90   XYZ
    dof rx
    limits (0.0 90.0)
  end
  begin
     id 23
     name lthumb
     direction 0.707107 -6.34952e-011 0.707107   
     length 0.601588   
     axis -90 45 6.0103e-014   XYZ
    dof rx rz
    limits (-45.0 45.0)
           (-45.0 45.0)
  end
  begin
     id 24 
     name rclavicle
     direction -0.866736 0.456792 -0.200276   
     length 3.45032  
     axis 0 0 0   XYZ 
    dof ry rz
    limits (-10.0 20.0)
           (-20.0 0.0)
  end
  begin
     id 25 
     name rhumerus
     direction -1 -4.4897e-011 8.65094e-028  
     length 5.32214   
     axis 180 30 90   XYZ
    dof rx ry rz
    limits (-90.0 60.0)
           (-90.0 90.0)
           (-90.0 90.0)
  end
  begin
     id 26 
     name rradius
     direction -1 -4.48987e-011 1.08427e-026   
     length 3.51208   
     axis 180 30 90   XYZ
    dof rx
    limits (-10.0 170.0)
  end
  begin
     id 27 
     name rwrist
     direction -1 -4.48961e-011 1.73222e-026   
     length 1.75604   
     axis -9.60847e-015 -90 -90   XYZ
    dof ry
    limits (-180.0 0.0)
  end
  begin
     id 28
     name rhand
     direction -1 -4.48895e-011 3.46314e-026   
     length 0.586681   
     axis -2.21073e-014 -90 -90   XYZ
    dof rx rz
    limits (-90.0 90.0)
           (-45.0 45.0)
  end
  begin
     id 29
     name rfingers
     direction -1 -4.48968e-011 6.92916e-026   
     length 0.472997   
     axis -4.42155e-014 -90 -90   XYZ
    dof rx
    limits (0.0 90.0)
  end
  begin
     id 30
     name rthumb
     direction -0.707107 -6.34848e-011 0.707107   
     length 0.679133   
     axis -90 -45 -6.0103e-014   XYZ
    dof rx rz
    limits (-45.0 45.0)
           (-45.0 45.0)
  end
:hierarchy
  begin
    root lhipjoint rhipjoint lowerback
    lhipjoint lfemur
    lfemur ltibia
    ltibia lfoot
    lfoot ltoes
    rhipjoint rfemur
    rfemur rtibia
    rtibia rfoot
    rfoot rtoes
    lowerback upperback
    upperback thorax
    thorax lowerneck lclavicle rclavicle
    lowerneck upperneck
    upperneck head
    lclavicle lhumerus
    lhumerus lradius
    lradius lwrist
    lwrist lhand lthumb
    lhand lfingers
    rclavicle rhumerus
    rhumerus rradius
    rradius rwrist
    rwrist rhand rthumb
    rhand rfingers
  end

#!OML:ASF H:\Dans Jumps\Project 1\Capture day 1\Session 1\subject.ASF
:FULLY-SPECIFIED
:DEGREES
67
root 0.799747 17.5413 -13.7895 7.13545 -1.38891 -1.67885
lowerback -3.20241 -0.788194 0.773551
upperback 3.3943 -1.19207 1.93639
thorax 5.3359 -0.602746 1.4804
lowerneck -13.7779 0.878855 -1.83666
upperneck 30.7273 1.90587 -0.456728
head 12.4367 0.565048 0.420131
rclavicle 1.09332e-015 -1.59028e-015
rhumerus -23.5827 -20.327 -78.3993
rradius 25.589
rwrist 33.0043
rhand -17.9978 -26.0247
rfingers 7.12502
rthumb 8.27248 -55.8428
lclavicle 1.09332e-015 -1.59028e-015
lhumerus -19.4348 4.97096 85.7628
lradius 18.083
lwrist -1.1332
lhand -24.1709 -2.99344
lfingers 7.12502
lthumb 2.31227 26.9738
rfemur -13.074 -2.49864 19.3187
rtibia 20.4511
rfoot -13.6647 -3.16461
rtoes 11.0463
lfemur -11.8389 7.89632 -17.8268
ltibia 18.0695
lfoot -10.7872 6.10031
ltoes -10.1706
68
root 0.798789 17.5413 -13.7893 7.14374 -1.36414 -1.67376
lowerback -3.19699 -0.781981 0.776475
upperback 3.39734 -1.18388 1.93641
thorax 5.33575 -0.598572 1.47948
lowerneck -13.791 0.871671 -1.86115
upperneck 30.7385 1.89507 -0.431423
head 12.4435 0.56062 0.432617
rclavicle -3.47873e-015 1.07344e-014
rhumerus -23.6076 -20.3559 -78.3673
rradius 25.5578
rwrist 33.0487
rhand -17.9812 -26.0429
rfingers 7.12502
rthumb 8.28849 -55.8603
lclavicle -3.47873e-015 1.07344e-014
lhumerus -19.449 4.98103 85.7765
lradius 18.0718
lwrist -1.15712
lhand -24.156 -2.98958
lfingers 7.12502
lthumb 2.3267 26.9775
rfemur -13.0796 -2.50935 19.3163
rtibia 20.4548
rfoot -13.6761 -3.17171
rtoes 11.0882
lfemur -11.8492 7.9027 -17.8296
ltibia 18.0642
lfoot -10.7894 6.08119
ltoes -10.2105
69
root 0.797717 17.5413 -13.7893 7.15328 -1.33808 -1.66668
lowerback -3.19219 -0.777291 0.776046
upperback 3.39888 -1.17747 1.93573
thorax 5.33447 -0.595398 1.47958
lowerneck -13.8075 0.866031 -1.89695
upperneck 30.7562 1.88587 -0.39363
head 12.4534 0.557098 0.452106
rclavicle 3.08116e-015 7.95139e-015
rhumerus -23.6317 -20.3838 -78.3373
rradius 25.5271
rwrist 33.0926
rhand -17.9667 -26.0623
rfingers 7.12502
rthumb 8.30243 -55.8791
lclavicle 3.08116e-015 7.95139e-015
lhumerus -19.4694 4.99449 85.7871
lradius 18.0644
lwrist -1.18718
lhand -24.1486 -2.99686
lfingers 7.12502
lthumb 2.33383 26.9701
rfemur -13.0869 -2.519 19.3123
rtibia 20.4587
rfoot -13.6875 -3.18055
rtoes 11.1379
lfemur -11.8617 7.91083 -17.8346
ltibia 18.0586
lfoot -10.7894 6.0625
ltoes -10.2667
70
root 0.796556 17.5413 -13.7893 7.16357 -1.31409 -1.65942
lowerback -3.18781 -0.772525 0.774028
upperback 3.39952 -1.17084 1.93461
thorax 5.33251 -0.592162 1.48012
lowerneck -13.8181 0.860744 -1.92052
upperneck 30.7693 1.87669 -0.365792
head 12.4604 0.553792 0.465628
rclavicle 2.5842e-015 1.07344e-014
rhumerus -23.6526 -20.4126 -78.3095
rradius 25.4966
rwrist 33.1355
rhand -17.9523 -26.0862
rfingers 7.12502
rthumb 8.31633 -55.9025
lclavicle 2.5842e-015 1.07344e-014
lhumerus -19.494 5.00233 85.7972
lradius 18.0614
lwrist -1.21138
lhand -24.1538 -3.00819
lfingers 7.12502
lthumb 2.32883 26.9588
rfemur -13.0953 -2.52796 19.3088
rtibia 20.4618
rfoot -13.6967 -3.18975
rtoes 11.177
lfemur -11.8756 7.9195 -17.8398
ltibia 18.0538
lfoot -10.7872 6.04934
ltoes -10.3305
71
root 0.795319 17.5414 -13.7894 7.17587 -1.28828 -1.65187
lowerback -3.18395 -0.769389 0.770328
upperback 3.39885 -1.16627 1.9335
thorax 5.32955 -0.590013 1.48144
lowerneck -13.8116 0.859188 -1.91354
upperneck 30.764 1.87309 -0.367778
head 12.457 0.552962 0.463088
rclavicle 9.83984e-015 -8.74653e-015
rhumerus -23.6698 -20.4427 -78.2832
rradius 25.4654
rwrist 33.1798
rhand -17.9459 -26.0966
rfingers 7.12502
rthumb 8.3225 -55.9127
lclavicle 9.83984e-015 -8.74653e-015
lhumerus -19.5213 5.01203 85.8053
lradius 18.0602
lwrist -1.23486
lhand -24.1694 -3.03159
lfingers 7.12502
lthumb 2.31375 26.9356
rfemur -13.1054 -2.53895 19.306
rtibia 20.4639
rfoot -13.7052 -3.20124
rtoes 11.1989
lfemur -11.8936 7.92427 -17.8453
ltibia 18.0505
lfoot -10.7808 6.04202
ltoes -10.4031
72
root 0.793981 17.5415 -13.7898 7.18844 -1.26554 -1.646
lowerback -3.1778 -0.766219 0.766369
upperback 3.39758 -1.16158 1.93234
thorax 5.32464 -0.587813 1.48289
lowerneck -13.7931 0.860801 -1.88018
upperneck 30.7437 1.87384 -0.393948
head 12.4455 0.554229 0.447233
rclavicle -2.18663e-015 -1.55052e-014
rhumerus -23.684 -20.4732 -78.2593
rradius 25.4356
rwrist 33.2233
rhand -17.9441 -26.0937
rfingers 7.12502
rthumb 8.32426 -55.9097
lclavicle -2.18663e-015 -1.55052e-014
lhumerus -19.5519 5.01974 85.8114
lradius 18.0632
lwrist -1.25194
lhand -24.1858 -3.04564
lfingers 7.12502
lthumb 2.29789 26.9217
rfemur -13.1164 -2.54529 19.3056
rtibia 20.4646
rfoot -13.7123 -3.21611
rtoes 11.2082
lfemur -11.9141 7.92673 -17.8489
ltibia 18.0502
lfoot -10.7708 6.04433
ltoes -10.4842
73
root 0.792569 17.5416 -13.7902 7.2005 -1.24493 -1.63981
lowerback -3.17067 -0.762117 0.761998
upperback 3.3971 -1.15553 1.92928
thorax 5.31994 -0.584913 1.48272
lowerneck -13.7768 0.861737 -1.85144
upperneck 30.724 1.87283 -0.413367
head 12.4346 0.555031 0.434521
rclavicle 1.83876e-014 -3.26007e-014
rhumerus -23.6934 -20.5093 -78.2391
rradius 25.407
rwrist 33.2656
rhand -17.9459 -26.0868
rfingers 7.12502
rthumb 8.32253 -55.9028
lclavicle 1.83876e-014 -3.26007e-014
lhumerus -19.581 5.01997 85.8155
lradius 18.0673
lwrist -1.26132
lhand -24.2018 -3.06299
lfingers 7.12502
lthumb 2.28243 26.9046
rfemur -13.1271 -2.55009 19.3051
rtibia 20.4635
rfoot -13.7164 -3.2326
rtoes 11.2041
lfemur -11.9363 7.92734 -17.8529
ltibia 18.0537
lfoot -10.7565 6.05591
ltoes -10.5762
